<svg width="1200" height="180" viewBox="0 0 1200 180" fill="none" xmlns="http://www.w3.org/2000/svg">
<rect width="1200" height="180" rx="30" fill="black"/>
<path d="M179.351 95.455C176.894 99.424 172.673 101.944 167.696 101.944C160.01 101.944 153.899 95.833 153.899 87.58C153.899 79.39 160.01 73.216 167.696 73.216C172.61 73.216 176.768 75.673 179.162 79.579H188.612C185.399 71.2 177.272 65.656 167.759 65.656C155.348 65.656 145.268 75.043 145.268 87.706C145.268 100.243 155.033 109.504 167.633 109.504C177.461 109.504 185.651 103.897 188.738 95.455H179.351Z" fill="white"/>
<path d="M219.81 109V87.958C219.81 81.217 215.841 76.933 209.1 76.933C204.627 76.933 201.855 79.201 200.595 81.091V66.16H192.594V109H200.595V89.344C200.595 86.131 203.115 84.052 206.391 84.052C209.541 84.052 211.872 85.942 211.872 89.407V109H219.81Z" fill="white"/>
<path d="M256.738 95.329C256.864 94.699 256.927 94.006 256.927 93.313C256.927 83.863 250.123 76.933 240.736 76.933C231.412 76.933 224.356 83.8 224.356 93.313C224.356 102.826 231.034 109.504 240.547 109.504C248.422 109.504 254.407 105.22 256.297 98.542H248.17C246.658 101.062 244.075 102.637 240.736 102.637C236.515 102.637 233.176 99.991 232.609 95.329H256.738ZM232.672 90.415C233.491 86.257 236.704 83.863 240.61 83.863C244.516 83.863 247.855 86.32 248.422 90.415H232.672Z" fill="white"/>
<path d="M283.915 97.282C282.529 100.306 279.631 102.196 276.292 102.196C271.63 102.196 267.724 98.353 267.724 93.25C267.724 88.147 271.63 84.304 276.292 84.304C279.505 84.304 282.403 86.194 283.852 89.029H292.042C290.278 81.91 284.104 76.933 276.229 76.933C266.905 76.933 259.786 83.989 259.786 93.25C259.786 102.511 266.779 109.504 276.103 109.504C284.167 109.504 290.404 104.527 292.105 97.282H283.915Z" fill="white"/>
<path d="M326.166 109L313.188 89.47L325.158 77.5H316.149L304.242 89.785H303.99V66.16H296.178V109H303.99V98.164L307.77 94.636L316.842 109H326.166Z" fill="white"/>
<path d="M357.937 93.25C357.937 83.989 350.755 76.933 341.431 76.933C332.044 76.933 324.925 83.989 324.925 93.25C324.925 102.511 332.044 109.504 341.431 109.504C350.755 109.504 357.937 102.511 357.937 93.25ZM341.431 102.196C336.769 102.196 332.863 98.353 332.863 93.25C332.863 88.147 336.769 84.304 341.431 84.304C346.093 84.304 349.936 88.147 349.936 93.25C349.936 98.353 346.093 102.196 341.431 102.196Z" fill="white"/>
<path d="M389.64 109V77.5H381.702V97.471C381.702 100.621 379.119 102.637 375.843 102.637C372.693 102.637 370.425 100.81 370.425 97.345V77.5H362.424V98.605C362.424 105.346 366.393 109.504 373.197 109.504C377.922 109.504 380.82 106.984 381.891 105.094V109H389.64Z" fill="white"/>
<path d="M410.376 109V102.007H408.801C406.092 102.007 405.336 100.999 405.336 98.353V84.367H410.313V77.5H405.336V69.814H397.398V77.5H393.303V84.367H397.398V99.802C397.398 106.228 399.855 109 406.281 109H410.376Z" fill="white"/>
<path d="M460.174 109L470.003 77.5H461.939L455.827 98.101H455.764L449.401 77.5H443.794L437.116 97.912H436.99L431.132 77.5H422.878L432.202 109H439.447L446.189 89.47H446.378L452.866 109H460.174Z" fill="white"/>
<path d="M477.602 73.594C480.059 73.594 482.138 71.515 482.138 69.058C482.138 66.664 480.059 64.522 477.602 64.522C475.145 64.522 473.066 66.664 473.066 69.058C473.066 71.515 475.145 73.594 477.602 73.594ZM481.508 109V77.5H473.57V109H481.508Z" fill="white"/>
<path d="M502.386 109V102.007H500.811C498.102 102.007 497.346 100.999 497.346 98.353V84.367H502.323V77.5H497.346V69.814H489.408V77.5H485.313V84.367H489.408V99.802C489.408 106.228 491.865 109 498.291 109H502.386Z" fill="white"/>
<path d="M533.745 109V87.958C533.745 81.217 529.776 76.933 523.035 76.933C518.562 76.933 515.79 79.201 514.53 81.091V66.16H506.529V109H514.53V89.344C514.53 86.131 517.05 84.052 520.326 84.052C523.476 84.052 525.807 85.942 525.807 89.407V109H533.745Z" fill="white"/>
<path d="M591.657 91.6002C591.657 83.0412 585.421 77.0257 577.761 77.0257C570.1 77.0257 563.864 83.1426 563.864 91.6002C563.864 99.9563 570.1 106.175 577.761 106.175C585.429 106.167 591.657 100.159 591.657 91.6002ZM591.767 117.074V110.45C587.988 115.038 582.362 117.886 575.624 117.886C561.626 117.886 551 106.674 551 91.6002C551 76.62 562.033 65.2132 575.937 65.2132C582.479 65.2132 587.995 68.0688 591.775 72.5472V66.126H604.341V117.074H591.767Z" fill="white"/>
<path d="M665.382 105.761C660.985 105.761 659.764 104.13 659.764 99.8549V77.2363H667.839V66.126H659.764V53.6971H646.884V66.126H630.296V63.0285C630.296 58.7451 631.931 57.1145 636.431 57.1145H639.255V47.2291H633.058C622.432 47.2291 617.424 50.6933 617.424 61.2886V66.1182H610.272V77.2285H617.424V117.067H630.304V77.2285H646.892V102.196C646.892 112.588 650.875 117.074 661.298 117.074H667.941V105.761H665.382Z" fill="white"/>
<path d="M711.572 87.0125C710.656 80.3884 705.234 76.4171 698.903 76.4171C692.565 76.4171 687.354 80.287 686.032 87.0125H711.572ZM685.922 94.9629C686.845 102.5 692.26 106.783 699.107 106.783C704.522 106.783 708.716 104.232 711.165 100.159H724.349C721.282 110.957 711.572 117.886 698.802 117.886C683.371 117.886 672.542 107.088 672.542 91.7016C672.542 76.3157 683.989 65.2053 699.115 65.2053C714.342 65.2053 725.375 76.4171 725.375 91.7016C725.375 92.8251 725.273 93.9408 725.069 94.9629H685.922Z" fill="white"/>
<path d="M807.261 91.6002C807.261 83.3455 801.024 77.0257 793.364 77.0257C785.703 77.0257 779.467 83.1426 779.467 91.6002C779.467 99.9563 785.703 106.175 793.364 106.175C801.024 106.167 807.261 99.8549 807.261 91.6002ZM766.791 66.126H779.358V72.7501C783.137 68.061 788.755 65.2132 795.5 65.2132C809.295 65.2132 820.125 76.5263 820.125 91.4987C820.125 106.479 809.092 117.894 795.195 117.894C788.755 117.894 783.442 115.342 779.764 111.067V138.039H766.791V66.126Z" fill="white"/>
<path d="M865.422 91.6002C865.422 83.0412 859.193 77.0257 851.525 77.0257C843.865 77.0257 837.628 83.1426 837.628 91.6002C837.628 99.9563 843.865 106.175 851.525 106.175C859.193 106.167 865.422 100.159 865.422 91.6002ZM865.531 117.074V110.45C861.752 115.038 856.126 117.886 849.389 117.886C835.391 117.886 824.765 106.674 824.765 91.6002C824.765 76.62 835.797 65.2132 849.694 65.2132C856.236 65.2132 861.752 68.0688 865.531 72.5472V66.126H878.098V117.074H865.531Z" fill="white"/>
<path d="M744.138 71.1194C744.138 71.1194 747.339 65.2132 755.171 65.2132C758.52 65.2132 760.688 66.3601 760.688 66.3601V79.3585C760.688 79.3585 755.962 76.4483 751.619 77.0335C747.276 77.6186 744.53 81.5978 744.545 86.9189V117.082H731.572V66.1338H744.138V71.1194Z" fill="white"/>
<path d="M936.792 66.126L905.062 137.875H891.682L904.139 110.138L883.075 66.126H898.239L910.563 95.5325L923.208 66.126H936.792Z" fill="white"/>
<path d="M1038.08 64.9713L1006.62 46.8702C997.386 41.5569 985.845 48.1966 985.845 58.831V60.6879C985.845 62.3654 986.745 63.918 988.2 64.7528L994.139 68.1702C995.884 69.1767 998.059 67.9205 998.059 65.9154V61.2965C998.059 58.987 1000.56 57.5436 1002.57 58.6983L1029.81 74.3807C1031.82 75.5355 1031.82 78.4223 1029.81 79.5692L1002.57 95.2516C1000.56 96.4063 998.059 94.9629 998.059 92.6535V90.1958C998.059 79.5614 986.518 72.9139 977.277 78.235L945.821 96.3361C936.588 101.649 936.588 114.944 945.821 120.258L977.277 138.359C986.51 143.672 998.059 137.032 998.059 126.398V124.541C998.059 122.864 997.159 121.319 995.704 120.476L989.765 117.051C988.02 116.044 985.845 117.301 985.845 119.306V123.925C985.845 126.234 983.341 127.678 981.338 126.523L954.092 110.84C952.089 109.686 952.089 106.799 954.092 105.644L981.338 89.9617C983.341 88.807 985.845 90.2504 985.845 92.5598V95.0175C985.845 105.652 997.386 112.299 1006.62 106.978L1038.08 88.8772C1047.31 83.5795 1047.31 70.2846 1038.08 64.9713Z" fill="white"/>
</svg>
